<svg width="80.000000" height="80.000000" viewBox="0 0 80 80" fill="none" xmlns="http://www.w3.org/2000/svg" xmlns:xlink="http://www.w3.org/1999/xlink">
	<desc>
			Created with Pixso.
	</desc>
	<defs>
		<clipPath id="clip226_12160">
			<rect id="Icon" rx="0.000000" width="79.000000" height="79.000000" transform="translate(0.500000 0.500000)" fill="white" fill-opacity="0"/>
		</clipPath>
	</defs>
	<g clip-path="url(#clip226_12160)">
		<path id="Union" d="M48.7 27.21L19.51 56L11.29 47.89C6.9 43.55 6.9 36.52 11.29 32.18L32.51 11.25C36.91 6.91 44.04 6.91 48.44 11.25L48.7 11.5C53.09 15.84 53.09 22.87 48.7 27.21Z" fill="#FFD11A" fill-opacity="1.000000" fill-rule="nonzero"/>
		<path id="Union" d="M31.29 52.78L60.48 24L68.7 32.1C73.09 36.44 73.09 43.47 68.7 47.81L47.48 68.74C43.08 73.08 35.95 73.08 31.55 68.74L31.29 68.49C26.9 64.15 26.9 57.12 31.29 52.78Z" fill="#404040" fill-opacity="1.000000" fill-rule="nonzero"/>
	</g>
</svg>
