<svg width="34.000000" height="34.000000" viewBox="0 0 34 34" fill="none" xmlns="http://www.w3.org/2000/svg" xmlns:xlink="http://www.w3.org/1999/xlink">
	<path id="icon" d="M31.16 17C31.16 17.61 30.96 18.2 30.6 18.66C28.31 21.46 23.09 26.91 17 26.91C10.9 26.91 5.68 21.46 3.39 18.66C3.03 18.2 2.83 17.61 2.83 17C2.83 16.38 3.03 15.79 3.39 15.33C5.68 12.53 10.9 7.08 17 7.08C23.09 7.08 28.31 12.53 30.6 15.33C30.96 15.79 31.16 16.38 31.16 17ZM21.36 16.99C21.36 14.56 19.41 12.59 17 12.59C14.58 12.59 12.63 14.56 12.63 16.99C12.63 19.43 14.58 21.4 17 21.4C19.41 21.4 21.36 19.43 21.36 16.99Z" stroke="#98989A" stroke-opacity="1.000000" stroke-width="1.500000" stroke-linejoin="round"/>
</svg>
