<svg width="80.000000" height="80.000000" viewBox="0 0 80 80" fill="none" xmlns="http://www.w3.org/2000/svg" xmlns:xlink="http://www.w3.org/1999/xlink">
	<desc>
			Created with Pixso.
	</desc>
	<defs>
		<clipPath id="clip226_12214">
			<rect id="Icon" rx="0.000000" width="79.000000" height="79.000000" transform="translate(0.500000 0.500000)" fill="white" fill-opacity="0"/>
		</clipPath>
	</defs>
	<g clip-path="url(#clip226_12214)">
		<path id="Ellipse 132" d="M40 24C40 32.83 32.83 40 24 40C15.16 40 8 32.83 8 24C8 15.16 15.16 8 24 8C32.83 8 40 15.16 40 24Z" fill="#404040" fill-opacity="1.000000" fill-rule="nonzero"/>
		<path id="Ellipse 133" d="M72 24C72 32.83 64.83 40 56 40C47.16 40 40 32.83 40 24C40 15.16 47.16 8 56 8C64.83 8 72 15.16 72 24Z" fill="#FFD11A" fill-opacity="1.000000" fill-rule="nonzero"/>
		<path id="Ellipse 134" d="M72 56C72 64.83 64.83 72 56 72C47.16 72 40 64.83 40 56C40 47.16 47.16 40 56 40C64.83 40 72 47.16 72 56Z" fill="#404040" fill-opacity="1.000000" fill-rule="nonzero"/>
		<path id="Ellipse 135" d="M40 56C40 64.83 32.83 72 24 72C15.16 72 8 64.83 8 56C8 47.16 15.16 40 24 40C32.83 40 40 47.16 40 56Z" fill="#FFD11A" fill-opacity="1.000000" fill-rule="nonzero"/>
	</g>
</svg>
