<svg width="80.000000" height="80.000000" viewBox="0 0 80 80" fill="none" xmlns="http://www.w3.org/2000/svg" xmlns:xlink="http://www.w3.org/1999/xlink">
	<desc>
			Created with Pixso.
	</desc>
	<defs>
		<clipPath id="clip226_12224">
			<rect id="Icon" rx="0.000000" width="79.000000" height="79.000000" transform="translate(0.500000 0.500000)" fill="white" fill-opacity="0"/>
		</clipPath>
	</defs>
	<g clip-path="url(#clip226_12224)">
		<path id="Union" d="M8 29.99C8 38.87 13.25 46.52 20.82 49.99L8 49.99C8 62.14 17.85 71.99 30 71.99C38.87 71.99 46.52 66.74 50 59.17L50 71.99C62.14 71.99 72 62.14 72 49.99C72 41.12 66.74 33.47 59.17 29.99L72 29.99C72 17.84 62.14 7.99 50 7.99C41.12 7.99 33.47 13.25 30 20.82L30 7.99C17.85 7.99 8 17.84 8 29.99Z" fill="#404040" fill-opacity="1.000000" fill-rule="nonzero"/>
		<path id="Ellipse 30" d="M50 39.99C50 45.52 45.52 49.99 40 49.99C34.47 49.99 30 45.52 30 39.99C30 34.47 34.47 29.99 40 29.99C45.52 29.99 50 34.47 50 39.99Z" fill="#FFD11A" fill-opacity="1.000000" fill-rule="nonzero"/>
	</g>
</svg>
